<?xml version="1.0" encoding="UTF-8" standalone="no"?><!-- Generator: Gravit.io --><svg xmlns="http://www.w3.org/2000/svg" xmlns:xlink="http://www.w3.org/1999/xlink" style="isolation:isolate" viewBox="0 0 1366 768" width="1366pt" height="768pt"><defs><clipPath id="_clipPath_gX4IGJKTZYsrJyPg1EawBUCqyy1JREQv"><rect width="1366" height="768"/></clipPath></defs><g clip-path="url(#_clipPath_gX4IGJKTZYsrJyPg1EawBUCqyy1JREQv)"><g><g><path d=" M 627.105 550.697 L 792.895 550.697 L 792.895 677.97 L 627.105 677.97 L 627.105 550.697 Z " fill="rgb(152,204,253)"/><path d=" M 781.053 561.303 L 781.053 667.364 L 638.947 667.364 L 638.947 561.303 L 781.053 561.303 Z  M 804.737 540.091 L 615.263 540.091 L 615.263 688.576 L 804.737 688.576 L 804.737 540.091 Z " fill="rgb(71,136,199)"/><path d=" M 271.842 41.606 L 1148.158 41.606 L 1148.158 593.121 L 271.842 593.121 L 271.842 41.606 Z " fill="none"/><path d=" M 1136.316 52.212 L 1136.316 582.515 L 283.684 582.515 L 283.684 52.212 L 1136.316 52.212 Z  M 1160 31 L 260 31 L 260 603.727 L 1160 603.727 L 1160 31 Z " fill="rgb(71,136,199)"/><path d=" M 271.842 508.273 L 1148.158 508.273 L 1148.158 593.121 L 271.842 593.121 L 271.842 508.273 Z " fill="rgb(152,204,253)"/><path d=" M 1136.316 518.879 L 1136.316 582.515 L 283.684 582.515 L 283.684 518.879 L 1136.316 518.879 Z  M 1160 497.667 L 260 497.667 L 260 603.727 L 1160 603.727 L 1160 497.667 Z " fill="rgb(71,136,199)"/><path d=" M 461.316 720.394 L 461.316 709.788 C 461.316 680.536 487.866 656.758 520.526 656.758 L 899.474 656.758 C 932.134 656.758 958.684 680.536 958.684 709.788 L 958.684 720.394 L 461.316 720.394 Z " fill="rgb(152,204,253)"/><path d=" M 899.474 667.364 C 925.574 667.364 946.842 686.412 946.842 709.788 L 473.158 709.788 C 473.158 686.412 494.426 667.364 520.526 667.364 L 899.474 667.364 Z  M 899.474 646.152 L 520.526 646.152 C 481.285 646.152 449.474 674.643 449.474 709.788 L 449.474 731 L 970.526 731 L 970.526 709.788 C 970.526 674.643 938.715 646.152 899.474 646.152 Z " fill="rgb(71,136,199)"/><path d=" M 1100.789 561.303 L 1053.421 561.303 C 1050.276 561.314 1047.257 560.201 1045.033 558.209 C 1042.81 556.218 1041.566 553.513 1041.579 550.697 C 1041.579 544.821 1046.861 540.091 1053.421 540.091 L 1100.789 540.091 C 1107.33 540.091 1112.632 544.839 1112.632 550.697 C 1112.632 556.555 1107.33 561.303 1100.789 561.303 Z " fill="rgb(255,255,255)"/></g><g><g><line x1="497.842" y1="211.686" x2="840.606" y2="411.558" vector-effect="non-scaling-stroke" stroke-width="5" stroke="rgb(71,136,199)" stroke-linejoin="miter" stroke-linecap="butt" stroke-miterlimit="10"/><path d=" M 667.666 259.456 L 687.546 334.864 C 690.618 348.3 704.994 356.91 719.657 354.095 C 734.319 351.28 743.715 338.106 740.643 324.671 L 713.253 211.344 C 711.602 203.92 707.021 197.353 700.322 192.87 L 641.211 153.467 C 637.712 151.132 633.739 149.462 629.525 148.555 L 562.219 127.341 C 548.877 124.398 534.931 129.262 527.101 139.59 L 471.044 201.55 C 462.974 212.538 465.995 227.424 477.835 235.02 C 489.675 242.617 505.974 240.125 514.481 229.418 L 551.78 190.614 L 580.51 199.38 L 529.002 268.793 L 466.681 497.217 L 529.002 497.217 L 574.933 354.452 L 611.016 391.142 L 629.245 497.217 L 684.804 497.217 L 667.666 372.469 L 628.404 308.339 L 667.666 259.456 Z " fill="rgb(71,136,199)"/><ellipse vector-effect="non-scaling-stroke" cx="715.964311996264" cy="126.02709922683687" rx="62.32074018512526" ry="57.106162184377325" fill="rgb(71,136,199)"/></g><g><path d=" M 939.13 498.35 L 914.361 498.35 C 906.304 498.35 899.705 491.522 899.705 483.187 L 899.705 477.158 C 899.705 476.626 899.448 474.586 897.391 473.788 C 897.134 473.699 896.963 473.611 896.791 473.522 C 893.277 472.281 889.763 470.773 886.507 469 C 886.335 468.911 886.078 468.822 885.907 468.734 C 885.307 468.734 883.507 469.709 882.478 470.507 L 878.879 474.231 C 873.137 480.172 863.88 480.172 858.138 474.231 L 840.483 456.054 C 834.741 450.113 834.741 440.536 840.483 434.595 L 843.74 431.226 C 846.225 428.654 844.768 425.196 844.768 425.108 C 844.597 424.753 844.425 424.398 844.34 423.955 C 843.311 421.561 842.283 419.167 841.511 416.773 C 841.426 416.507 841.254 416.329 841.169 416.063 C 839.969 413.048 836.026 412.96 835.855 412.96 L 831.827 412.96 C 823.771 412.96 817.171 406.132 817.171 397.797 L 817.171 372.171 C 817.171 363.836 823.771 357.008 831.827 357.008 L 835.855 357.008 C 835.941 357.008 839.969 356.92 841.169 353.905 C 841.254 353.639 841.34 353.373 841.511 353.195 C 842.369 350.801 843.311 348.407 844.34 346.013 C 844.425 345.658 844.597 345.304 844.768 344.949 C 844.94 344.417 846.14 341.313 843.74 338.831 L 840.483 335.461 C 834.741 329.52 834.741 319.944 840.483 314.003 L 858.053 295.825 C 863.795 289.884 873.051 289.884 878.793 295.825 L 882.393 299.549 C 883.593 300.436 885.392 301.411 886.078 301.234 C 886.164 301.145 886.249 301.145 886.335 301.145 C 889.678 299.461 893.192 297.865 896.791 296.623 C 896.963 296.534 897.22 296.446 897.391 296.357 C 899.448 295.559 899.619 293.431 899.705 292.899 L 899.705 286.958 C 899.705 278.623 906.304 271.795 914.361 271.795 L 939.13 271.795 C 947.186 271.795 953.785 278.623 953.785 286.958 L 953.785 292.988 C 953.785 293.52 954.042 295.559 956.099 296.357 C 956.356 296.446 956.528 296.534 956.699 296.623 C 960.299 297.953 963.727 299.461 967.069 301.145 C 967.241 301.234 967.412 301.323 967.669 301.411 C 968.184 301.411 969.898 300.525 971.183 299.638 L 974.783 295.914 C 980.525 289.973 989.781 289.973 995.523 295.914 L 1013.093 314.091 C 1018.835 320.032 1018.835 329.609 1013.093 335.55 L 1009.836 338.919 C 1007.522 341.402 1008.636 344.506 1008.893 345.126 C 1008.979 345.392 1009.151 345.747 1009.236 346.013 C 1010.35 348.407 1011.293 350.89 1012.15 353.284 C 1012.236 353.55 1012.407 353.727 1012.493 353.993 C 1013.693 357.008 1017.635 357.097 1017.807 357.097 L 1021.835 357.097 C 1029.891 357.097 1036.49 363.925 1036.49 372.26 L 1036.49 397.886 C 1036.49 406.221 1029.891 413.048 1021.835 413.048 L 1017.807 413.048 C 1017.721 413.048 1013.693 413.137 1012.493 416.152 C 1012.414 416.405 1012.298 416.644 1012.15 416.861 C 1011.293 419.255 1010.35 421.649 1009.322 424.044 C 1009.236 424.398 1009.065 424.753 1008.893 425.196 C 1008.722 425.728 1007.522 428.832 1009.922 431.315 L 1013.179 434.684 C 1015.921 437.522 1017.464 441.334 1017.464 445.413 C 1017.464 449.492 1015.921 453.305 1013.179 456.142 L 995.609 474.32 C 989.867 480.261 980.611 480.261 974.868 474.32 L 971.269 470.596 C 970.069 469.709 968.269 468.822 967.584 468.911 C 967.498 469 967.326 469 967.241 469.088 C 963.898 470.773 960.384 472.281 956.87 473.611 C 956.699 473.699 956.442 473.788 956.271 473.877 C 954.042 474.763 953.956 477.246 953.956 477.246 L 953.956 483.276 C 953.785 491.522 947.186 498.35 939.13 498.35 L 939.13 498.35 Z  M 903.648 462.083 C 910.59 465.808 912.475 473.079 912.475 477.069 L 912.475 483.098 C 912.475 484.074 913.332 484.961 914.275 484.961 L 939.044 484.961 C 939.987 484.961 940.844 484.074 940.844 483.098 L 940.844 477.069 C 940.844 473.079 942.729 465.719 949.757 461.995 C 950.185 461.64 950.785 461.374 951.3 461.197 C 955.242 459.867 959.099 458.182 962.698 456.231 C 963.727 455.699 964.841 455.344 965.955 455.522 C 972.64 454.724 978.64 459.689 979.411 460.31 C 979.582 460.487 979.754 460.576 979.839 460.753 L 983.696 464.744 C 984.382 465.453 985.582 465.453 986.267 464.744 L 1003.837 446.566 C 1004.265 446.123 1004.351 445.502 1004.351 445.236 C 1004.351 444.97 1004.265 444.349 1003.837 443.906 L 1000.58 440.536 C 994.495 434.241 994.752 426.349 996.295 421.383 C 996.38 420.763 996.552 420.142 996.809 419.61 C 998.095 416.773 999.294 413.935 1000.237 411.098 C 1000.409 410.477 1000.751 409.945 1001.094 409.413 C 1005.037 401.61 1013.093 399.482 1017.635 399.57 L 1021.663 399.57 C 1022.606 399.57 1023.463 398.684 1023.463 397.708 L 1023.463 372.082 C 1023.463 371.107 1022.606 370.22 1021.663 370.22 L 1017.55 370.22 C 1013.093 370.22 1004.951 368.092 1001.094 360.289 C 1000.751 359.846 1000.494 359.225 1000.323 358.693 C 999.379 355.774 998.234 352.929 996.895 350.181 C 996.638 349.56 996.466 348.939 996.295 348.318 C 994.838 343.442 994.581 335.55 1000.666 329.254 L 1003.923 325.885 C 1004.608 325.175 1004.608 323.934 1003.923 323.224 L 986.353 305.047 C 985.667 304.338 984.467 304.338 983.782 305.047 L 979.925 309.037 L 979.497 309.48 C 978.725 310.101 972.726 315.067 966.041 314.269 C 964.927 314.357 963.813 314.091 962.784 313.471 C 959.184 311.52 955.413 309.835 951.385 308.505 C 950.785 308.328 950.271 308.062 949.757 307.707 C 942.815 303.983 940.929 296.712 940.929 292.633 L 940.929 286.603 C 940.929 285.628 940.072 284.741 939.13 284.741 L 914.361 284.741 C 913.418 284.741 912.561 285.628 912.561 286.603 L 912.561 292.633 C 912.561 296.623 910.675 303.983 903.648 307.707 C 903.219 308.062 902.619 308.328 902.105 308.505 C 898.162 309.835 894.306 311.52 890.706 313.471 C 889.678 314.003 888.564 314.269 887.449 314.269 C 880.764 314.978 874.765 310.101 873.994 309.48 C 873.822 309.303 873.651 309.214 873.565 309.037 L 869.708 305.047 C 869.023 304.338 867.823 304.338 867.137 305.047 L 849.568 323.224 C 848.882 323.934 848.882 325.175 849.568 325.885 L 852.825 329.254 C 858.995 335.638 858.652 343.53 857.11 348.407 C 857.024 349.028 856.853 349.56 856.596 350.181 C 855.308 352.953 854.163 355.795 853.167 358.693 C 852.996 359.314 852.653 359.846 852.31 360.378 C 848.368 368.181 840.054 370.22 835.769 370.22 L 831.741 370.22 C 830.798 370.22 829.941 371.107 829.941 372.082 L 829.941 397.708 C 829.941 398.684 830.798 399.57 831.741 399.57 L 835.855 399.57 C 840.312 399.57 848.454 401.698 852.31 409.501 C 852.653 409.945 852.91 410.566 853.082 411.098 C 854.024 413.935 855.139 416.773 856.51 419.61 C 856.767 420.231 856.938 420.851 857.024 421.472 C 858.481 426.349 858.824 434.241 852.653 440.536 L 849.396 443.906 C 848.711 444.615 848.711 445.857 849.396 446.566 L 866.966 464.744 C 867.651 465.453 868.851 465.453 869.537 464.744 L 873.394 460.753 L 873.822 460.31 C 874.594 459.689 880.593 454.724 887.278 455.522 C 888.392 455.433 889.506 455.699 890.535 456.231 C 894.134 458.182 897.991 459.867 901.934 461.197 C 902.705 461.463 903.219 461.729 903.648 462.083 L 903.648 462.083 Z  M 926.702 443.551 C 895.506 443.551 870.051 417.305 870.051 384.94 C 870.051 352.663 895.42 326.328 926.702 326.328 C 957.899 326.328 983.353 352.575 983.353 384.94 C 983.353 417.305 957.985 443.551 926.702 443.551 Z  M 926.702 339.717 C 902.533 339.717 882.907 360.023 882.907 385.028 C 882.907 410.034 902.533 430.339 926.702 430.339 C 950.871 430.339 970.498 410.034 970.498 385.028 C 970.498 360.023 950.871 339.717 926.702 339.717 Z " fill="rgb(71,136,199)"/><g><defs><filter id="GzrmfrIvgKiO0Rr9CMrIizHjdj9DdTgw" x="-200%" y="-200%" width="400%" height="400%" filterUnits="objectBoundingBox" color-interpolation-filters="sRGB"><feOffset xmlns="http://www.w3.org/2000/svg" in="SourceGraphic" dx="0" dy="0"/><feGaussianBlur xmlns="http://www.w3.org/2000/svg" stdDeviation="2.146804531419514" result="pf_100_offsetBlur"/><feComposite xmlns="http://www.w3.org/2000/svg" in="SourceGraphic" in2="pf_100_offsetBlur" result="pf_100_inverse" operator="out"/><feFlood xmlns="http://www.w3.org/2000/svg" flood-color="#000000" flood-opacity="0.5" result="pf_100_color"/><feComposite xmlns="http://www.w3.org/2000/svg" in="pf_100_color" in2="pf_100_inverse" operator="in" result="pf_100_shadow"/><feComposite xmlns="http://www.w3.org/2000/svg" in="pf_100_shadow" in2="SourceGraphic" operator="over"/><feGaussianBlur xmlns="http://www.w3.org/2000/svg" stdDeviation="2.146804531419514"/></filter></defs><g filter="url(#GzrmfrIvgKiO0Rr9CMrIizHjdj9DdTgw)"><path d=" M 928.856 432.779 C 903.393 432.779 882.673 411.375 882.673 385.073 C 882.673 358.77 903.393 337.367 928.856 337.367 C 954.318 337.367 975.038 358.77 975.038 385.073 C 975.038 411.375 954.318 432.779 928.856 432.779 Z " fill="rgb(223,240,254)"/></g><path d=" M 928.856 338.656 C 953.634 338.656 973.79 359.476 973.79 385.073 C 973.79 410.669 953.634 431.489 928.856 431.489 C 904.077 431.489 883.921 410.669 883.921 385.073 C 883.921 359.476 904.077 338.656 928.856 338.656 Z  M 928.856 336.077 C 902.664 336.077 881.425 358.017 881.425 385.073 C 881.425 412.128 902.664 434.068 928.856 434.068 C 955.047 434.068 976.286 412.128 976.286 385.073 C 976.286 358.017 955.047 336.077 928.856 336.077 Z " fill="rgb(71,136,199)"/><path d=" M 886.575 364.443 L 971.294 364.443 L 968.74 361.864 L 889.119 361.864 L 886.575 364.443 Z  M 971.139 405.702 L 886.418 405.702 L 888.971 408.281 L 968.592 408.281 L 971.139 405.702 Z " fill="rgb(71,136,199)"/><path d=" M 957.359 365.732 C 952.491 349.04 941.562 337.367 928.856 337.367 C 916.149 337.367 905.218 349.04 900.362 365.732 M 900.362 404.413 C 905.218 421.105 916.149 432.779 928.856 432.779 C 941.562 432.779 952.494 421.105 957.359 404.413" fill="none" vector-effect="non-scaling-stroke" stroke-width="1" stroke="rgb(71,136,199)" stroke-linejoin="miter" stroke-linecap="round" stroke-miterlimit="10"/><path d=" M 918.636 404.413 C 920.548 421.768 924.866 432.779 928.856 432.779 C 932.845 432.779 937.163 421.768 939.076 404.413 M 939.076 365.732 C 937.163 348.378 932.845 337.367 928.856 337.367 C 924.866 337.367 920.548 348.378 918.636 365.732" fill="none" vector-effect="non-scaling-stroke" stroke-width="1" stroke="rgb(71,136,199)" stroke-linejoin="miter" stroke-linecap="round" stroke-miterlimit="10"/><path d=" M 909.609 374.758 L 913.585 374.758 L 908.962 395.387 L 904.594 395.387 L 901.688 382.151 C 901.526 381.389 901.432 380.614 901.406 379.835 L 901.356 379.835 C 901.308 380.614 901.204 381.388 901.044 382.151 L 898.061 395.387 L 893.517 395.387 L 888.914 374.758 L 893.225 374.758 L 895.682 388.497 C 895.789 389.082 895.866 389.866 895.916 390.854 L 895.991 390.854 C 896.035 390.039 896.154 389.23 896.346 388.438 L 899.516 374.758 L 903.735 374.758 L 906.603 388.608 C 906.71 389.124 906.808 389.856 906.885 390.826 L 906.935 390.826 C 906.963 390.068 907.052 389.304 907.187 388.528 L 909.609 374.758 Z  M 934.794 388.528 C 934.657 389.302 934.57 390.07 934.54 390.823 L 934.49 390.823 C 934.436 390.08 934.342 389.341 934.21 388.608 L 931.342 374.758 L 927.121 374.758 L 923.95 388.438 C 923.746 389.315 923.628 390.119 923.601 390.854 L 923.521 390.854 C 923.493 390.064 923.416 389.277 923.289 388.497 L 920.83 374.758 L 916.524 374.758 L 921.124 395.387 L 925.68 395.387 L 928.653 382.151 C 928.791 381.547 928.898 380.782 928.975 379.835 L 929.025 379.835 C 929.053 380.691 929.15 381.468 929.307 382.151 L 932.201 395.387 L 936.569 395.387 L 941.19 374.758 L 937.213 374.758 L 934.794 388.528 Z  M 964.818 374.758 L 962.402 388.528 C 962.264 389.302 962.187 390.07 962.147 390.823 L 962.097 390.823 C 962.042 390.08 961.948 389.341 961.815 388.608 L 958.949 374.758 L 954.725 374.758 L 951.555 388.438 C 951.353 389.315 951.235 390.119 951.205 390.854 L 951.128 390.854 C 951.099 390.064 951.021 389.277 950.893 388.497 L 948.437 374.758 L 944.126 374.758 L 948.729 395.387 L 953.282 395.387 L 956.258 382.151 C 956.393 381.547 956.5 380.782 956.578 379.835 L 956.627 379.835 C 956.657 380.691 956.752 381.468 956.902 382.151 L 959.803 395.387 L 964.171 395.387 L 968.797 374.758 L 964.818 374.758 Z " fill="rgb(71,136,199)"/></g></g></g><g><ellipse vector-effect="non-scaling-stroke" cx="1098.7514060742415" cy="552.156661786237" rx="7.592800899887607" ry="7.68667642752564" fill="rgb(6,134,6)"/><ellipse vector-effect="non-scaling-stroke" cx="1077.4915635545563" cy="552.156661786237" rx="7.592800899887607" ry="7.68667642752564" fill="rgb(255,255,0)"/><ellipse vector-effect="non-scaling-stroke" cx="1055.219347581552" cy="552.156661786237" rx="7.592800899887607" ry="7.68667642752564" fill="rgb(255,0,0)"/></g></g></g></svg>